<mxfile host="app.diagrams.net" modified="2021-05-21T17:58:29.483Z" agent="5.0 (Macintosh; Intel Mac OS X 10_15_6) AppleWebKit/605.1.15 (KHTML, like Gecko) Version/14.0.3 Safari/605.1.15" etag="BLskgtmJ33SK2Tt9mGp5" version="14.7.0" type="github">
  <diagram name="Page-1" id="c4acf3e9-155e-7222-9cf6-157b1a14988f">
    <mxGraphModel dx="1472" dy="738" grid="1" gridSize="10" guides="1" tooltips="1" connect="1" arrows="1" fold="1" page="1" pageScale="1" pageWidth="850" pageHeight="1100" background="none" math="0" shadow="0">
      <root>
        <mxCell id="0" />
        <mxCell id="1" parent="0" />
        <mxCell id="17acba5748e5396b-20" value="+ AbstractButton" style="swimlane;html=1;fontStyle=0;childLayout=stackLayout;horizontal=1;startSize=26;fillColor=none;horizontalStack=0;resizeParent=1;resizeLast=0;collapsible=1;marginBottom=0;swimlaneFillColor=#ffffff;rounded=0;shadow=0;comic=0;labelBackgroundColor=none;strokeWidth=1;fontFamily=Verdana;fontSize=10;align=center;" parent="1" vertex="1">
          <mxGeometry x="235" y="70" width="280" height="100" as="geometry" />
        </mxCell>
        <mxCell id="17acba5748e5396b-21" value="+ colorHandler : ColorHandler&lt;br&gt;+ fontHandler : FontHandler;" style="text;html=1;strokeColor=none;fillColor=none;align=left;verticalAlign=top;spacingLeft=4;spacingRight=4;whiteSpace=wrap;overflow=hidden;rotatable=0;points=[[0,0.5],[1,0.5]];portConstraint=eastwest;" parent="17acba5748e5396b-20" vertex="1">
          <mxGeometry y="26" width="280" height="44" as="geometry" />
        </mxCell>
        <mxCell id="NkOzcVT1KXUHW7bZKLYk-2" value="+ AbstractButton(screenhandler : Screenhandler): AbstractButton" style="rounded=0;whiteSpace=wrap;html=1;align=left;" vertex="1" parent="17acba5748e5396b-20">
          <mxGeometry y="70" width="280" height="30" as="geometry" />
        </mxCell>
        <mxCell id="5d2195bd80daf111-18" value="&lt;p style=&quot;margin: 0px ; margin-top: 4px ; text-align: center&quot;&gt;&lt;i&gt;&amp;lt;&amp;lt;Interface&amp;gt;&amp;gt;&lt;/i&gt;&lt;br&gt;&lt;b&gt;AnswerInterface&lt;/b&gt;&lt;/p&gt;&lt;p style=&quot;margin: 0px ; margin-left: 4px&quot;&gt;&lt;br&gt;&lt;/p&gt;&lt;hr size=&quot;1&quot;&gt;&lt;p style=&quot;margin: 0px ; margin-left: 4px&quot;&gt;&amp;nbsp;+ getAnswer(): String&lt;br&gt;&lt;/p&gt;" style="verticalAlign=top;align=left;overflow=fill;fontSize=12;fontFamily=Helvetica;html=1;rounded=0;shadow=0;comic=0;labelBackgroundColor=none;strokeWidth=1" parent="1" vertex="1">
          <mxGeometry x="10" y="10" width="190" height="83" as="geometry" />
        </mxCell>
        <mxCell id="NkOzcVT1KXUHW7bZKLYk-3" value="JButton" style="rounded=0;whiteSpace=wrap;html=1;" vertex="1" parent="1">
          <mxGeometry x="330" y="10" width="90" height="30" as="geometry" />
        </mxCell>
        <mxCell id="NkOzcVT1KXUHW7bZKLYk-4" value="" style="endArrow=classic;html=1;exitX=0.5;exitY=1;exitDx=0;exitDy=0;entryX=0.5;entryY=0;entryDx=0;entryDy=0;" edge="1" parent="1" source="NkOzcVT1KXUHW7bZKLYk-3" target="17acba5748e5396b-20">
          <mxGeometry width="50" height="50" relative="1" as="geometry">
            <mxPoint x="350" y="300" as="sourcePoint" />
            <mxPoint x="400" y="60" as="targetPoint" />
          </mxGeometry>
        </mxCell>
        <mxCell id="NkOzcVT1KXUHW7bZKLYk-5" value="+ FancyButton" style="swimlane;html=1;fontStyle=0;childLayout=stackLayout;horizontal=1;startSize=26;fillColor=none;horizontalStack=0;resizeParent=1;resizeLast=0;collapsible=1;marginBottom=0;swimlaneFillColor=#ffffff;rounded=0;shadow=0;comic=0;labelBackgroundColor=none;strokeWidth=1;fontFamily=Verdana;fontSize=10;align=center;" vertex="1" parent="1">
          <mxGeometry x="195" y="200" width="360" height="110" as="geometry" />
        </mxCell>
        <mxCell id="NkOzcVT1KXUHW7bZKLYk-7" value="&amp;nbsp;+ FancyButton(screenhandler : ScreenHandler) : FancyButton&lt;br&gt;&amp;nbsp;+ FancyButton(screen handler : ScreenHandler, bgColorKey : String) : FancyButton&lt;br&gt;&amp;nbsp;+ FancyButton(screen handler : ScreenHandler, bgColorKey : String, fontKey : String) : FancyButton" style="rounded=0;whiteSpace=wrap;html=1;align=left;" vertex="1" parent="NkOzcVT1KXUHW7bZKLYk-5">
          <mxGeometry y="26" width="360" height="84" as="geometry" />
        </mxCell>
        <mxCell id="NkOzcVT1KXUHW7bZKLYk-9" value="" style="endArrow=classic;html=1;exitX=0.5;exitY=1;exitDx=0;exitDy=0;entryX=0.5;entryY=0;entryDx=0;entryDy=0;" edge="1" parent="1" source="NkOzcVT1KXUHW7bZKLYk-2" target="NkOzcVT1KXUHW7bZKLYk-5">
          <mxGeometry width="50" height="50" relative="1" as="geometry">
            <mxPoint x="410" y="97" as="sourcePoint" />
            <mxPoint x="400" y="190" as="targetPoint" />
          </mxGeometry>
        </mxCell>
        <mxCell id="NkOzcVT1KXUHW7bZKLYk-11" value="JLabel" style="rounded=0;whiteSpace=wrap;html=1;" vertex="1" parent="1">
          <mxGeometry x="760" y="10" width="90" height="30" as="geometry" />
        </mxCell>
        <mxCell id="NkOzcVT1KXUHW7bZKLYk-12" value="+ AbstractJLabel" style="swimlane;html=1;fontStyle=0;childLayout=stackLayout;horizontal=1;startSize=26;fillColor=none;horizontalStack=0;resizeParent=1;resizeLast=0;collapsible=1;marginBottom=0;swimlaneFillColor=#ffffff;rounded=0;shadow=0;comic=0;labelBackgroundColor=none;strokeWidth=1;fontFamily=Verdana;fontSize=10;align=center;" vertex="1" parent="1">
          <mxGeometry x="665" y="80" width="280" height="100" as="geometry" />
        </mxCell>
        <mxCell id="NkOzcVT1KXUHW7bZKLYk-13" value="+ colorHandler : ColorHandler" style="text;html=1;strokeColor=none;fillColor=none;align=left;verticalAlign=top;spacingLeft=4;spacingRight=4;whiteSpace=wrap;overflow=hidden;rotatable=0;points=[[0,0.5],[1,0.5]];portConstraint=eastwest;" vertex="1" parent="NkOzcVT1KXUHW7bZKLYk-12">
          <mxGeometry y="26" width="280" height="34" as="geometry" />
        </mxCell>
        <mxCell id="NkOzcVT1KXUHW7bZKLYk-14" value="&amp;nbsp;+ AbstractJLabel(screenHandler : ScreenHandler) : AbstractJLabel" style="rounded=0;whiteSpace=wrap;html=1;align=left;" vertex="1" parent="NkOzcVT1KXUHW7bZKLYk-12">
          <mxGeometry y="60" width="280" height="40" as="geometry" />
        </mxCell>
        <mxCell id="NkOzcVT1KXUHW7bZKLYk-15" value="" style="endArrow=classic;html=1;exitX=0.5;exitY=1;exitDx=0;exitDy=0;entryX=0.5;entryY=0;entryDx=0;entryDy=0;" edge="1" parent="1" source="NkOzcVT1KXUHW7bZKLYk-11" target="NkOzcVT1KXUHW7bZKLYk-12">
          <mxGeometry width="50" height="50" relative="1" as="geometry">
            <mxPoint x="425" y="437" as="sourcePoint" />
            <mxPoint x="850" y="70" as="targetPoint" />
          </mxGeometry>
        </mxCell>
        <mxCell id="NkOzcVT1KXUHW7bZKLYk-16" value="+ ImageDisplay" style="swimlane;html=1;fontStyle=0;childLayout=stackLayout;horizontal=1;startSize=26;fillColor=none;horizontalStack=0;resizeParent=1;resizeLast=0;collapsible=1;marginBottom=0;swimlaneFillColor=#ffffff;rounded=0;shadow=0;comic=0;labelBackgroundColor=none;strokeWidth=1;fontFamily=Verdana;fontSize=10;align=center;" vertex="1" parent="1">
          <mxGeometry x="580" y="210" width="450" height="140" as="geometry" />
        </mxCell>
        <mxCell id="NkOzcVT1KXUHW7bZKLYk-18" value="&amp;nbsp;+ ImageDisplay(screenHandler : ScreenHandler, image : Image) : ImageDisplay&lt;br&gt;&amp;nbsp;+ ImageDisplay(screenHandler : ScreenHandler, image : Image, listener : MouseListener) : ImageDisplay&lt;br&gt;&amp;nbsp;+ ImageDisplay(screenHandler : ScreenHandler, image : Image, width : int, height : int) : ImageDisplay&lt;br&gt;&amp;nbsp;+ ImageDisplay(screenHandler : ScreenHandler, image : Image, width : int, height : int,&amp;nbsp;listener : MouseListener) : ImageDisplay" style="rounded=0;whiteSpace=wrap;html=1;align=left;" vertex="1" parent="NkOzcVT1KXUHW7bZKLYk-16">
          <mxGeometry y="26" width="450" height="114" as="geometry" />
        </mxCell>
        <mxCell id="NkOzcVT1KXUHW7bZKLYk-19" value="" style="endArrow=classic;html=1;exitX=0.5;exitY=1;exitDx=0;exitDy=0;" edge="1" parent="1">
          <mxGeometry width="50" height="50" relative="1" as="geometry">
            <mxPoint x="805" y="180" as="sourcePoint" />
            <mxPoint x="805" y="210" as="targetPoint" />
            <Array as="points" />
          </mxGeometry>
        </mxCell>
        <mxCell id="NkOzcVT1KXUHW7bZKLYk-20" value="JOptionPane" style="rounded=0;whiteSpace=wrap;html=1;" vertex="1" parent="1">
          <mxGeometry x="1155" y="10" width="90" height="30" as="geometry" />
        </mxCell>
        <mxCell id="NkOzcVT1KXUHW7bZKLYk-21" value="+ AbstractJOptionPane" style="swimlane;html=1;fontStyle=0;childLayout=stackLayout;horizontal=1;startSize=26;fillColor=none;horizontalStack=0;resizeParent=1;resizeLast=0;collapsible=1;marginBottom=0;swimlaneFillColor=#ffffff;rounded=0;shadow=0;comic=0;labelBackgroundColor=none;strokeWidth=1;fontFamily=Verdana;fontSize=10;align=center;" vertex="1" parent="1">
          <mxGeometry x="1060" y="80" width="280" height="100" as="geometry" />
        </mxCell>
        <mxCell id="NkOzcVT1KXUHW7bZKLYk-22" value="+ colorHandler : ColorHandler" style="text;html=1;strokeColor=none;fillColor=none;align=left;verticalAlign=top;spacingLeft=4;spacingRight=4;whiteSpace=wrap;overflow=hidden;rotatable=0;points=[[0,0.5],[1,0.5]];portConstraint=eastwest;" vertex="1" parent="NkOzcVT1KXUHW7bZKLYk-21">
          <mxGeometry y="26" width="280" height="34" as="geometry" />
        </mxCell>
        <mxCell id="NkOzcVT1KXUHW7bZKLYk-23" value="&amp;nbsp;+ AbstractJOptionPane(screenHandler : ScreenHandler) : AbstractJOptionPane" style="rounded=0;whiteSpace=wrap;html=1;align=left;" vertex="1" parent="NkOzcVT1KXUHW7bZKLYk-21">
          <mxGeometry y="60" width="280" height="40" as="geometry" />
        </mxCell>
        <mxCell id="NkOzcVT1KXUHW7bZKLYk-24" value="" style="endArrow=classic;html=1;exitX=0.5;exitY=1;exitDx=0;exitDy=0;entryX=0.5;entryY=0;entryDx=0;entryDy=0;" edge="1" source="NkOzcVT1KXUHW7bZKLYk-20" target="NkOzcVT1KXUHW7bZKLYk-21" parent="1">
          <mxGeometry width="50" height="50" relative="1" as="geometry">
            <mxPoint x="820" y="437" as="sourcePoint" />
            <mxPoint x="1220" y="60" as="targetPoint" />
          </mxGeometry>
        </mxCell>
        <mxCell id="NkOzcVT1KXUHW7bZKLYk-25" value="+ ErrorPopUp" style="swimlane;html=1;fontStyle=0;childLayout=stackLayout;horizontal=1;startSize=26;fillColor=none;horizontalStack=0;resizeParent=1;resizeLast=0;collapsible=1;marginBottom=0;swimlaneFillColor=#ffffff;rounded=0;shadow=0;comic=0;labelBackgroundColor=none;strokeWidth=1;fontFamily=Verdana;fontSize=10;align=center;" vertex="1" parent="1">
          <mxGeometry x="1060" y="220" width="280" height="70" as="geometry" />
        </mxCell>
        <mxCell id="NkOzcVT1KXUHW7bZKLYk-27" value="&amp;nbsp;+ ErrorPopUp(screenHandler : ScreenHandler, message : String, title : String) : ErrorPopUp" style="rounded=0;whiteSpace=wrap;html=1;align=left;" vertex="1" parent="NkOzcVT1KXUHW7bZKLYk-25">
          <mxGeometry y="26" width="280" height="44" as="geometry" />
        </mxCell>
        <mxCell id="NkOzcVT1KXUHW7bZKLYk-28" value="" style="endArrow=classic;html=1;exitX=0.5;exitY=1;exitDx=0;exitDy=0;entryX=0.5;entryY=0;entryDx=0;entryDy=0;" edge="1" parent="1">
          <mxGeometry width="50" height="50" relative="1" as="geometry">
            <mxPoint x="1199" y="180" as="sourcePoint" />
            <mxPoint x="1199" y="220" as="targetPoint" />
          </mxGeometry>
        </mxCell>
        <mxCell id="NkOzcVT1KXUHW7bZKLYk-30" value="Panel" style="rounded=0;whiteSpace=wrap;html=1;" vertex="1" parent="1">
          <mxGeometry x="745" y="390" width="90" height="30" as="geometry" />
        </mxCell>
        <mxCell id="NkOzcVT1KXUHW7bZKLYk-31" value="+ AbstractPanel" style="swimlane;html=1;fontStyle=0;childLayout=stackLayout;horizontal=1;startSize=26;fillColor=none;horizontalStack=0;resizeParent=1;resizeLast=0;collapsible=1;marginBottom=0;swimlaneFillColor=#ffffff;rounded=0;shadow=0;comic=0;labelBackgroundColor=none;strokeWidth=1;fontFamily=Verdana;fontSize=10;align=center;" vertex="1" parent="1">
          <mxGeometry x="650" y="460" width="280" height="130" as="geometry" />
        </mxCell>
        <mxCell id="NkOzcVT1KXUHW7bZKLYk-32" value="+ colorHandler : ColorHandler&lt;br&gt;+ fontHandler : FontHandler&lt;br&gt;+ imageHandler : ImageHandler&lt;br&gt;+ screenHandler : ScreenHandler" style="text;html=1;strokeColor=none;fillColor=none;align=left;verticalAlign=top;spacingLeft=4;spacingRight=4;whiteSpace=wrap;overflow=hidden;rotatable=0;points=[[0,0.5],[1,0.5]];portConstraint=eastwest;" vertex="1" parent="NkOzcVT1KXUHW7bZKLYk-31">
          <mxGeometry y="26" width="280" height="64" as="geometry" />
        </mxCell>
        <mxCell id="NkOzcVT1KXUHW7bZKLYk-33" value="&amp;nbsp;+ AbstractJPanel(screenHandler : ScreenHandler) : AbstractJPanel" style="rounded=0;whiteSpace=wrap;html=1;align=left;" vertex="1" parent="NkOzcVT1KXUHW7bZKLYk-31">
          <mxGeometry y="90" width="280" height="40" as="geometry" />
        </mxCell>
        <mxCell id="NkOzcVT1KXUHW7bZKLYk-34" value="" style="endArrow=classic;html=1;exitX=0.5;exitY=1;exitDx=0;exitDy=0;entryX=0.5;entryY=0;entryDx=0;entryDy=0;" edge="1" source="NkOzcVT1KXUHW7bZKLYk-30" target="NkOzcVT1KXUHW7bZKLYk-31" parent="1">
          <mxGeometry width="50" height="50" relative="1" as="geometry">
            <mxPoint x="410" y="817" as="sourcePoint" />
            <mxPoint x="820" y="440" as="targetPoint" />
          </mxGeometry>
        </mxCell>
        <mxCell id="NkOzcVT1KXUHW7bZKLYk-37" value="" style="endArrow=classic;html=1;exitX=0.5;exitY=1;exitDx=0;exitDy=0;entryX=0.5;entryY=0;entryDx=0;entryDy=0;" edge="1" source="NkOzcVT1KXUHW7bZKLYk-33" parent="1" target="NkOzcVT1KXUHW7bZKLYk-40">
          <mxGeometry width="50" height="50" relative="1" as="geometry">
            <mxPoint x="370" y="690" as="sourcePoint" />
            <mxPoint x="400" y="630" as="targetPoint" />
            <Array as="points">
              <mxPoint x="790" y="620" />
              <mxPoint x="790" y="610" />
            </Array>
          </mxGeometry>
        </mxCell>
        <mxCell id="NkOzcVT1KXUHW7bZKLYk-40" value="+ BackgroundPanel" style="swimlane;html=1;fontStyle=0;childLayout=stackLayout;horizontal=1;startSize=26;fillColor=none;horizontalStack=0;resizeParent=1;resizeLast=0;collapsible=1;marginBottom=0;swimlaneFillColor=#ffffff;rounded=0;shadow=0;comic=0;labelBackgroundColor=none;strokeWidth=1;fontFamily=Verdana;fontSize=10;align=center;" vertex="1" parent="1">
          <mxGeometry x="600" y="650" width="380" height="150" as="geometry" />
        </mxCell>
        <mxCell id="NkOzcVT1KXUHW7bZKLYk-41" value="+ bg : Image&lt;br&gt;+ panel : JPanel" style="text;html=1;strokeColor=none;fillColor=none;align=left;verticalAlign=top;spacingLeft=4;spacingRight=4;whiteSpace=wrap;overflow=hidden;rotatable=0;points=[[0,0.5],[1,0.5]];portConstraint=eastwest;" vertex="1" parent="NkOzcVT1KXUHW7bZKLYk-40">
          <mxGeometry y="26" width="380" height="44" as="geometry" />
        </mxCell>
        <mxCell id="NkOzcVT1KXUHW7bZKLYk-42" value="&amp;nbsp;+ BackgroundPanel(screenhandler : Screenhandler, image : Image) : BackgroundPanel&lt;br&gt;&amp;nbsp;+ BackgroundPanel(screenhandler : Screenhandler) : BackgroundPanel&lt;br&gt;&amp;nbsp;# paintComponent( g : Graphics) : void" style="rounded=0;whiteSpace=wrap;html=1;align=left;" vertex="1" parent="NkOzcVT1KXUHW7bZKLYk-40">
          <mxGeometry y="70" width="380" height="80" as="geometry" />
        </mxCell>
        <mxCell id="NkOzcVT1KXUHW7bZKLYk-44" value="" style="endArrow=classic;html=1;exitX=0.5;exitY=1;exitDx=0;exitDy=0;entryX=0;entryY=0.5;entryDx=0;entryDy=0;" edge="1" parent="1" source="5d2195bd80daf111-18" target="NkOzcVT1KXUHW7bZKLYk-47">
          <mxGeometry width="50" height="50" relative="1" as="geometry">
            <mxPoint x="80" y="190" as="sourcePoint" />
            <mxPoint x="110" y="980" as="targetPoint" />
            <Array as="points">
              <mxPoint x="105" y="760" />
            </Array>
          </mxGeometry>
        </mxCell>
        <mxCell id="NkOzcVT1KXUHW7bZKLYk-45" value="+ DateAnswer" style="swimlane;html=1;fontStyle=0;childLayout=stackLayout;horizontal=1;startSize=26;fillColor=none;horizontalStack=0;resizeParent=1;resizeLast=0;collapsible=1;marginBottom=0;swimlaneFillColor=#ffffff;rounded=0;shadow=0;comic=0;labelBackgroundColor=none;strokeWidth=1;fontFamily=Verdana;fontSize=10;align=center;" vertex="1" parent="1">
          <mxGeometry x="175" y="650" width="380" height="150" as="geometry" />
        </mxCell>
        <mxCell id="NkOzcVT1KXUHW7bZKLYk-46" value="# datePicker : JDatePickerImpl&lt;br&gt;# i18n : I18nHandler" style="text;html=1;strokeColor=none;fillColor=none;align=left;verticalAlign=top;spacingLeft=4;spacingRight=4;whiteSpace=wrap;overflow=hidden;rotatable=0;points=[[0,0.5],[1,0.5]];portConstraint=eastwest;" vertex="1" parent="NkOzcVT1KXUHW7bZKLYk-45">
          <mxGeometry y="26" width="380" height="44" as="geometry" />
        </mxCell>
        <mxCell id="NkOzcVT1KXUHW7bZKLYk-47" value="&amp;nbsp;+ DateAnswer(screenHandler : ScreenHandler) : DateAnswer&lt;br&gt;&amp;nbsp;+ setI18n(screenHandler : ScreenHandler) : void&lt;br&gt;&amp;nbsp;+ getAnswer() : String" style="rounded=0;whiteSpace=wrap;html=1;align=left;" vertex="1" parent="NkOzcVT1KXUHW7bZKLYk-45">
          <mxGeometry y="70" width="380" height="80" as="geometry" />
        </mxCell>
        <mxCell id="NkOzcVT1KXUHW7bZKLYk-48" value="" style="endArrow=classic;html=1;entryX=0.5;entryY=0;entryDx=0;entryDy=0;exitX=0.5;exitY=1;exitDx=0;exitDy=0;" edge="1" parent="1">
          <mxGeometry width="50" height="50" relative="1" as="geometry">
            <mxPoint x="790.9999999999995" y="590" as="sourcePoint" />
            <mxPoint x="370.47" y="650" as="targetPoint" />
            <Array as="points">
              <mxPoint x="791" y="620" />
              <mxPoint x="370" y="620" />
            </Array>
          </mxGeometry>
        </mxCell>
        <mxCell id="NkOzcVT1KXUHW7bZKLYk-49" value="+ Header" style="swimlane;html=1;fontStyle=0;childLayout=stackLayout;horizontal=1;startSize=26;fillColor=none;horizontalStack=0;resizeParent=1;resizeLast=0;collapsible=1;marginBottom=0;swimlaneFillColor=#ffffff;rounded=0;shadow=0;comic=0;labelBackgroundColor=none;strokeWidth=1;fontFamily=Verdana;fontSize=10;align=center;" vertex="1" parent="1">
          <mxGeometry x="1000" y="650" width="380" height="150" as="geometry" />
        </mxCell>
        <mxCell id="NkOzcVT1KXUHW7bZKLYk-50" value="# gbc : GridBagConstraints&lt;br&gt;# i18n : I18nHandler" style="text;html=1;strokeColor=none;fillColor=none;align=left;verticalAlign=top;spacingLeft=4;spacingRight=4;whiteSpace=wrap;overflow=hidden;rotatable=0;points=[[0,0.5],[1,0.5]];portConstraint=eastwest;" vertex="1" parent="NkOzcVT1KXUHW7bZKLYk-49">
          <mxGeometry y="26" width="380" height="44" as="geometry" />
        </mxCell>
        <mxCell id="NkOzcVT1KXUHW7bZKLYk-51" value="&amp;nbsp;+ Header(screenHandler : ScreenHandler" style="rounded=0;whiteSpace=wrap;html=1;align=left;" vertex="1" parent="NkOzcVT1KXUHW7bZKLYk-49">
          <mxGeometry y="70" width="380" height="80" as="geometry" />
        </mxCell>
        <mxCell id="NkOzcVT1KXUHW7bZKLYk-53" value="" style="endArrow=classic;html=1;entryX=0.5;entryY=0;entryDx=0;entryDy=0;" edge="1" parent="1" target="NkOzcVT1KXUHW7bZKLYk-49">
          <mxGeometry width="50" height="50" relative="1" as="geometry">
            <mxPoint x="790" y="620" as="sourcePoint" />
            <mxPoint x="1070" y="430" as="targetPoint" />
            <Array as="points">
              <mxPoint x="1190" y="620" />
            </Array>
          </mxGeometry>
        </mxCell>
      </root>
    </mxGraphModel>
  </diagram>
</mxfile>
